<?xml version="1.0" encoding="UTF-8"?>
<svg width="27px" height="27px" viewBox="0 0 27 27" version="1.1" xmlns="http://www.w3.org/2000/svg" xmlns:xlink="http://www.w3.org/1999/xlink">
    <!-- Generator: Sketch 40.3 (33839) - http://www.bohemiancoding.com/sketch -->
    <title>Combined Shape</title>
    <desc>Created with Sketch.</desc>
    <defs>
        <path d="M33.8265966,10.5562626 C24.5199193,11.9099611 23.3203821,20.4779208 23.3203821,20.4779208 C23.3203821,20.4779208 20.1119386,22.0777703 19.5664933,25.5164818 C19.5664933,25.5164818 23.3203821,26.5122269 23.3203821,26.5122269 C23.3203821,26.5122269 23.5659552,28.2010764 23.8201861,28.6007287 C24.074417,29.000381 26.9813637,30.231441 27.7272753,30.231441 C28.4731869,30.231441 29.56647,29.1081109 29.56647,29.1081109 C29.56647,29.1081109 32.9592492,31.3151925 33.1300076,31.0458507 C34.9198242,28.2227266 33.8265966,24.6690983 33.8265966,24.6690983 C33.8265966,24.6690983 38.6261452,19.2693747 33.8265966,10.5562626 Z M30.868803,19.3335882 C32.1305027,19.3335882 33.1533124,18.3107785 33.1533124,17.0490788 C33.1533124,15.7873791 32.1305027,14.7645694 30.868803,14.7645694 C29.6071033,14.7645694 28.5842936,15.7873791 28.5842936,17.0490788 C28.5842936,18.3107785 29.6071033,19.3335882 30.868803,19.3335882 Z" id="path-1"></path>
        <filter x="-50%" y="-50%" width="200%" height="200%" filterUnits="objectBoundingBox" id="filter-2">
            <feOffset dx="0" dy="2" in="SourceAlpha" result="shadowOffsetOuter1"></feOffset>
            <feGaussianBlur stdDeviation="2" in="shadowOffsetOuter1" result="shadowBlurOuter1"></feGaussianBlur>
            <feColorMatrix values="0 0 0 0 0   0 0 0 0 0   0 0 0 0 0  0 0 0 0.5 0" type="matrix" in="shadowBlurOuter1"></feColorMatrix>
        </filter>
    </defs>
    <g id="Page-1" stroke="none" stroke-width="1" fill="none" fill-rule="evenodd">
        <g id="Menu_First_Screen" transform="translate(-14.000000, -250.000000)">
            <g id="Tab_Voertuig_Info" transform="translate(0.000000, 239.000000)">
                <g id="Combined-Shape" transform="translate(27.763111, 20.812451) rotate(25.000000) translate(-27.763111, -20.812451) ">
                    <use fill="black" fill-opacity="1" filter="url(#filter-2)" xlink:href="#path-1"></use>
                    <use fill="#FFFFFF" fill-rule="evenodd" xlink:href="#path-1"></use>
                </g>
            </g>
        </g>
    </g>
</svg>