<?xml version="1.0" encoding="UTF-8"?>
<svg width="30px" height="29px" viewBox="0 0 30 29" version="1.1" xmlns="http://www.w3.org/2000/svg" xmlns:xlink="http://www.w3.org/1999/xlink">
    <!-- Generator: Sketch 40.3 (33839) - http://www.bohemiancoding.com/sketch -->
    <title>imgomgeving</title>
    <desc>Created with Sketch.</desc>
    <defs>
        <path d="M18.3074387,5.85124244 C12.4255073,6.70439454 11.6673854,12.1042475 11.6673854,12.1042475 C11.6673854,12.1042475 9.63961071,13.1125333 9.29488275,15.2797396 C9.29488275,15.2797396 11.6673854,15.9072958 11.6673854,15.9072958 C11.6673854,15.9072958 11.8225906,16.9716728 11.9832675,17.2235488 C12.1439445,17.4754249 13.9811696,18.2512855 14.4525947,18.2512855 C14.9240197,18.2512855 15.6149877,17.5433203 15.6149877,17.5433203 C15.6149877,17.5433203 17.7592647,18.9343068 17.8671861,18.7645574 C18.9983716,16.9853176 18.3074387,14.7456864 18.3074387,14.7456864 C18.3074387,14.7456864 21.3408108,11.3425759 18.3074387,5.85124244 Z M16.4380777,11.3830457 C17.235487,11.3830457 17.881915,10.7384322 17.881915,9.94326127 C17.881915,9.1480903 17.235487,8.50347687 16.4380777,8.50347687 C15.6406684,8.50347687 14.9942404,9.1480903 14.9942404,9.94326127 C14.9942404,10.7384322 15.6406684,11.3830457 16.4380777,11.3830457 Z" id="path-1"></path>
        <filter x="-50%" y="-50%" width="200%" height="200%" filterUnits="objectBoundingBox" id="filter-2">
            <feOffset dx="0" dy="2" in="SourceAlpha" result="shadowOffsetOuter1"></feOffset>
            <feGaussianBlur stdDeviation="2" in="shadowOffsetOuter1" result="shadowBlurOuter1"></feGaussianBlur>
            <feColorMatrix values="0 0 0 0 0   0 0 0 0 0   0 0 0 0 0  0 0 0 0.5 0" type="matrix" in="shadowBlurOuter1"></feColorMatrix>
        </filter>
    </defs>
    <g id="Page-1" stroke="none" stroke-width="1" fill="none" fill-rule="evenodd">
        <g id="Menu_First_Screen" transform="translate(-12.000000, -8.000000)">
            <g id="Tab_Voertuig_Omgeving">
                <g id="imgomgeving" transform="translate(12.000000, 8.000000)">
                    <g id="Combined-Shape-Copy" transform="translate(14.475243, 12.315081) rotate(25.000000) translate(-14.475243, -12.315081) ">
                        <use fill="black" fill-opacity="1" filter="url(#filter-2)" xlink:href="#path-1"></use>
                        <use fill="#FFFFFF" fill-rule="evenodd" xlink:href="#path-1"></use>
                    </g>
                    <polygon id="Star" fill="#FFFFFF" points="14.5408163 3.12894737 13.5511779 3.64777064 13.740182 2.54888532 12.9395477 1.77065041 14.0459971 1.61032521 14.5408163 0.610526316 15.0356355 1.61032521 16.142085 1.77065041 15.3414506 2.54888532 15.5304548 3.64777064"></polygon>
                    <polygon id="Star-Copy-4" fill="#FFFFFF" transform="translate(12.293579, 26.822776) rotate(-104.000000) translate(-12.293579, -26.822776) " points="12.2935791 27.8225751 11.3039406 28.3413984 11.4929447 27.2425131 10.6923104 26.4642782 11.7987598 26.303953 12.2935791 25.3041541 12.7883983 26.303953 13.8948477 26.4642782 13.0942134 27.2425131 13.2832175 28.3413984"></polygon>
                    <polygon id="Star-Copy-2" fill="#FFFFFF" points="1.68367347 15.6447368 0.694035034 16.1635601 0.883039157 15.0646748 0.082404845 14.2864399 1.18885425 14.1261147 1.68367347 13.1263158 2.17849269 14.1261147 3.28494209 14.2864399 2.48430778 15.0646748 2.6733119 16.1635601"></polygon>
                    <polygon id="Star-Copy-3" fill="#FFFFFF" transform="translate(27.802184, 14.193024) rotate(-19.000000) translate(-27.802184, -14.193024) " points="27.8021839 15.1928225 26.8125455 15.7116457 27.0015496 14.6127604 26.2009153 13.8345255 27.3073647 13.6742003 27.8021839 12.6744014 28.2970032 13.6742003 29.4034526 13.8345255 28.6028182 14.6127604 28.7918224 15.7116457"></polygon>
                    <polygon id="Star-Copy" fill="#FFFFFF" points="8.75768943 3.66315789 7.31821534 4.41780992 7.59313043 2.81943128 6.42857143 1.68745323 8.03795238 1.45425293 8.75768943 0 9.47742647 1.45425293 11.0868074 1.68745323 9.92224843 2.81943128 10.1971635 4.41780992"></polygon>
                    <polygon id="Star-Copy-5" fill="#FFFFFF" transform="translate(22.688263, 24.714417) rotate(-28.000000) translate(-22.688263, -24.714417) " points="22.6882631 26.1686698 21.248789 26.9233218 21.5237041 25.3249432 20.3591451 24.1929651 21.968526 23.9597648 22.6882631 22.5055119 23.4080001 23.9597648 25.0173811 24.1929651 23.8528221 25.3249432 24.1277371 26.9233218"></polygon>
                </g>
            </g>
        </g>
    </g>
</svg>