<?xml version="1.0" encoding="UTF-8"?>
<svg width="22px" height="37px" viewBox="0 0 22 37" version="1.1" xmlns="http://www.w3.org/2000/svg" xmlns:xlink="http://www.w3.org/1999/xlink">
    <!-- Generator: Sketch 40.3 (33839) - http://www.bohemiancoding.com/sketch -->
    <title>imgvoorraad</title>
    <desc>Created with Sketch.</desc>
    <defs></defs>
    <g id="Page-1" stroke="none" stroke-width="1" fill="none" fill-rule="evenodd">
        <g id="Menu_First_Screen" transform="translate(-11.000000, -697.000000)" fill="#FFFFFF">
            <g id="imgvoorraad" transform="translate(10.000000, 697.000000)">
                <path d="M10.6630779,33.6926477 C10.9935924,32.2126795 10.6630779,17.0914858 10.6630779,17.0914858 C10.6630779,17.0914858 11.6304342,17.1734876 13.5582768,13.6473476 C15.4861193,10.1212077 13.3687734,1.51545935 12.8212519,0.50438216 C12.2737304,-0.50669503 12.0625447,10.6247178 11.4747695,10.6247178 C10.8869944,10.6247178 11.0087081,0.50438216 10.020282,0.50438216 C9.03185593,0.50438216 8.96585436,10.6247178 8.30475349,10.6247178 C7.64365261,10.6247178 8.19651914,-0.666711909 7.44579231,0.50438216 C6.69506548,1.67547623 4.61852192,10.2734293 6.37510876,13.6473476 C8.1316956,17.021266 8.96585436,17.0914858 8.96585436,17.0914858 C8.96585436,17.0914858 7.93833625,31.8180862 8.30475349,33.6926477 C8.67117073,35.5672092 8.82154505,36.8100568 9.50174718,36.8100568 C10.1819493,36.8100568 10.3325634,35.172616 10.6630779,33.6926477 Z" id="Path-3" transform="translate(10.020282, 18.614629) rotate(-19.000000) translate(-10.020282, -18.614629) "></path>
                <path d="M14.7853467,36.0948454 C15.1158611,34.667676 14.7853467,20.0859411 14.7853467,20.0859411 C14.7853467,20.0859411 16.3827775,14.8026723 16.3827775,8.82076902 C16.3827775,2.83886572 14.38698,-0.82924456 13.0881231,-0.82924456 C11.7892662,-0.82924456 10.057974,6.53470608 11.705859,12.9253005 C13.3537441,19.3158948 13.0881231,20.0859411 13.0881231,20.0859411 C13.0881231,20.0859411 12.060605,34.2871601 12.4270223,36.0948454 C12.7934395,37.9025306 12.9438138,39.1010388 13.624016,39.1010388 C14.3042181,39.1010388 14.4548322,37.5220148 14.7853467,36.0948454 Z" id="Path-3-Copy" transform="translate(13.707279, 19.135897) rotate(27.000000) translate(-13.707279, -19.135897) "></path>
            </g>
        </g>
    </g>
</svg>